# xmcd CD database file
#
# Track frame offsets:
#	150
#	20715
#	41000
#	63297
#	79677
#	99862
#	117120
#	134422
#
# Disc length: 2059 seconds
#
# Revision: 0
# Processed by: cddbd v1.5.1PL2 Copyright (c) Steve Scherf et al.
# Submitted via: CDex 1.51
#
DISCID=60080908
DTITLE=Various Artist - NEXTLEVEL vol. 1
DYEAR=2000
DGENRE=Hip-Hop
TTITLE0=MICROPHONE PAGER/鬼哭啾啾
TTITLE1=O.C./SHOWTIME
TTITLE2=RINO/回帰線
TTITLE3=SADAT X/INTERVIEW
TTITLE4=RHYMESTER/マイクの刺客
TTITLE5=LOAD FINESSE/Down for the underground
TTITLE6=ZEEBRA/The Untouchable
TTITLE7=BIZ MARKIE/…And I Rock
EXTD=YEAR: 2000
EXTT0=
EXTT1=
EXTT2=
EXTT3=
EXTT4=
EXTT5=
EXTT6=
EXTT7=
PLAYORDER=
